<svg width="1728" height="198" viewBox="0 0 1728 198" fill="none" xmlns="http://www.w3.org/2000/svg">
<rect x="1664" y="0.00012207" width="200" height="200" transform="rotate(90 1664 0.00012207)" fill="#4C0AA3"/>
<path fill-rule="evenodd" clip-rule="evenodd" d="M1485.21 200L1471.07 200L1664 7.0712L1664 21.2133L1485.21 200ZM1642.79 0.000120216L1656.93 0.000121452L1464 192.929L1464 178.787L1642.79 0.000120216ZM1628.64 0.000118979L1614.5 0.000117743L1464 150.503L1464 164.645L1628.64 0.000118979ZM1586.22 0.00011527L1600.36 0.000116507L1464 136.361L1464 122.218L1586.22 0.00011527ZM1572.08 0.000114034L1557.93 0.000112798L1464 93.9341L1464 108.076L1572.08 0.000114034ZM1529.65 0.000110325L1543.79 0.000111561L1464 79.792L1464 65.6498L1529.65 0.000110325ZM1515.51 0.000109089L1501.37 0.000107852L1464 37.3656L1464 51.5077L1515.51 0.000109089ZM1473.08 0.00010538L1487.22 0.000106616L1464 23.2234L1464 9.08128L1473.08 0.00010538ZM1499.36 200L1513.5 200L1664 49.4976L1664 35.3555L1499.36 200ZM1541.78 200L1527.64 200L1664 63.6397L1664 77.7819L1541.78 200ZM1555.92 200L1570.07 200L1664 106.066L1664 91.924L1555.92 200ZM1598.35 200L1584.21 200L1664 120.208L1664 134.35L1598.35 200ZM1612.49 200L1626.63 200L1664 162.635L1664 148.493L1612.49 200ZM1654.92 200L1640.78 200L1664 176.777L1664 190.919L1654.92 200Z" fill="#FF1684"/>
<rect x="1864" y="0.00012207" width="200" height="200" transform="rotate(90 1864 0.00012207)" fill="#FFD664"/>
<path d="M1864 0.000139555C1864 26.2645 1858.83 52.2717 1848.78 76.5368C1838.72 100.802 1823.99 122.85 1805.42 141.421C1786.85 159.993 1764.8 174.725 1740.54 184.776C1716.27 194.827 1690.26 200 1664 200L1664 0.00012207L1864 0.000139555Z" fill="#4C0AA3"/>
<rect x="1264" y="200" width="200" height="200" transform="rotate(-90 1264 200)" fill="white"/>
<path d="M1464 200L1464 7.85197e-05L1264 200L1464 200Z" fill="#4C0AA3"/>
<rect width="200" height="200" transform="matrix(-1 -8.74228e-08 -8.74228e-08 1 1264 6.10352e-05)" fill="#FF1684"/>
<rect x="1064" y="6.10352e-05" width="200" height="200" transform="rotate(90 1064 6.10352e-05)" fill="#FFD664"/>
<path d="M1064 1.74846e-05C1064 26.2644 1058.83 52.2716 1048.78 76.5367C1038.72 100.802 1023.99 122.85 1005.42 141.421C986.85 159.993 964.802 174.725 940.537 184.776C916.272 194.827 890.264 200 864 200L864 0L1064 1.74846e-05Z" fill="#FF1684"/>
<rect x="864" y="6.10352e-05" width="200" height="200" transform="rotate(90 864 6.10352e-05)" fill="#FF1684"/>
<circle r="50" transform="matrix(1 8.74228e-08 8.74228e-08 -1 764 100)" fill="#4C0AA3"/>
<rect x="464" width="200" height="200" transform="rotate(90 464 0)" fill="white"/>
<rect x="464" width="100" height="200" transform="rotate(90 464 0)" fill="#4C0AA3"/>
<rect x="464" width="100" height="200" transform="rotate(90 464 0)" fill="#4C0AA3"/>
<rect x="464" y="200" width="200" height="200" transform="rotate(-90 464 200)" fill="#FF1684"/>
<circle r="50" transform="matrix(-1 -8.74228e-08 -8.74228e-08 1 564.007 100)" fill="white"/>
<rect width="200" height="200" transform="matrix(-8.74228e-08 1 1 8.74228e-08 64 -3.05176e-05)" fill="#FFD664"/>
<path d="M64 -1.74846e-05C64 26.2644 69.1731 52.2716 79.2241 76.5367C89.275 100.802 104.007 122.85 122.579 141.421C141.15 159.993 163.198 174.725 187.463 184.776C211.728 194.827 237.736 200 264 200L264 0L64 -1.74846e-05Z" fill="#FF1684"/>
<rect width="200" height="200" transform="matrix(-8.74228e-08 1 1 8.74228e-08 -136 -6.10352e-05)" fill="white"/>
<path d="M64 -4.35506e-05L64 200L-136 -6.10352e-05L64 -4.35506e-05Z" fill="#4C0AA3"/>
</svg>
