<svg width="46" height="46" viewBox="0 0 46 46" fill="none" xmlns="http://www.w3.org/2000/svg">
<g clip-path="url(#clip0_111_1629)">
<path opacity="0.3" d="M31.6248 9.58337C28.6732 9.58337 25.7982 11.4809 24.8015 14.1067H21.2173C20.2015 11.4809 17.3265 9.58337 14.3748 9.58337C10.5415 9.58337 7.6665 12.4584 7.6665 16.2917C7.6665 21.8309 13.6848 27.2934 22.8082 35.5542L22.9998 35.7459L23.1915 35.5542C32.3148 27.2934 38.3332 21.8309 38.3332 16.2917C38.3332 12.4584 35.4582 9.58337 31.6248 9.58337Z" fill="#FF1684"/>
<path d="M31.6252 5.75C28.2902 5.75 25.0893 7.3025 23.0002 9.75583C20.911 7.3025 17.7102 5.75 14.3752 5.75C8.47183 5.75 3.8335 10.3883 3.8335 16.2917C3.8335 23.5367 10.3502 29.44 20.221 38.41L23.0002 40.9208L25.7793 38.3908C35.6502 29.44 42.1668 23.5367 42.1668 16.2917C42.1668 10.3883 37.5285 5.75 31.6252 5.75ZM23.1918 35.5542L23.0002 35.7458L22.8085 35.5542C13.6852 27.2933 7.66683 21.8308 7.66683 16.2917C7.66683 12.4583 10.5418 9.58333 14.3752 9.58333C17.3268 9.58333 20.2018 11.4808 21.2177 14.1067H24.8018C25.7985 11.4808 28.6735 9.58333 31.6252 9.58333C35.4585 9.58333 38.3335 12.4583 38.3335 16.2917C38.3335 21.8308 32.3152 27.2933 23.1918 35.5542Z" fill="#FF1684"/>
</g>
<defs>
<clipPath id="clip0_111_1629">
<rect width="46" height="46" fill="white"/>
</clipPath>
</defs>
</svg>
