<svg width="193" height="1117" viewBox="0 0 193 1117" fill="none" xmlns="http://www.w3.org/2000/svg">
<rect x="193" y="-34" width="200" height="200" transform="rotate(90 193 -34)" fill="white"/>
<rect x="193" y="-34" width="100" height="200" transform="rotate(90 193 -34)" fill="#4C0AA3"/>
<rect x="193" y="-34" width="100" height="200" transform="rotate(90 193 -34)" fill="#4C0AA3"/>
<rect x="193" y="166" width="200" height="200" transform="rotate(90 193 166)" fill="#FFD664"/>
<path d="M193 166C193 192.264 187.827 218.272 177.776 242.537C167.725 266.802 152.993 288.85 134.421 307.421C115.85 325.993 93.8018 340.725 69.5367 350.776C45.2716 360.827 19.2644 366 -7 366L-6.99998 166L193 166Z" fill="white"/>
<rect x="193" y="566" width="200" height="200" transform="rotate(-180 193 566)" fill="white"/>
<path d="M193 366L-6.99999 366L193 566L193 366Z" fill="#4C0AA3"/>
<rect width="200" height="200" transform="matrix(-1 -4.37114e-08 -4.37114e-08 1 193 566)" fill="#FFD664"/>
<path d="M193 566C166.736 566 140.728 571.173 116.463 581.224C92.1982 591.275 70.1504 606.007 51.5786 624.579C33.0069 643.15 18.275 665.198 8.22409 689.463C-1.82685 713.728 -7 739.736 -7 766L193 766L193 566Z" fill="white"/>
<rect x="193" y="1166" width="200" height="200" transform="rotate(-180 193 1166)" fill="#FF1684"/>
<rect x="193" y="971" width="10" height="200" transform="rotate(90 193 971)" fill="#4C0AA3"/>
<rect x="193" y="991" width="10" height="200" transform="rotate(90 193 991)" fill="#4C0AA3"/>
<rect x="193" y="1011" width="10" height="200" transform="rotate(90 193 1011)" fill="#4C0AA3"/>
<rect x="193" y="1031" width="10" height="200" transform="rotate(90 193 1031)" fill="#4C0AA3"/>
<rect x="193" y="1051" width="10" height="200" transform="rotate(90 193 1051)" fill="#4C0AA3"/>
<rect x="193" y="1071" width="10" height="200" transform="rotate(90 193 1071)" fill="#4C0AA3"/>
<rect x="193" y="1091" width="10" height="200" transform="rotate(90 193 1091)" fill="#4C0AA3"/>
<rect x="193" y="1111" width="10" height="200" transform="rotate(90 193 1111)" fill="#4C0AA3"/>
<rect x="-7" y="766" width="200" height="200" fill="#FF1684"/>
<circle r="50" transform="matrix(4.37114e-08 -1 -1 -4.37114e-08 93 866.007)" fill="white"/>
</svg>
