<svg width="52" height="52" viewBox="0 0 52 52" fill="none" xmlns="http://www.w3.org/2000/svg">
<g clip-path="url(#clip0_111_4331)">
<path opacity="0.3" d="M8.66683 8.66669H43.3335V37.2017L40.7985 34.6667H8.66683V8.66669ZM13.0002 30.3334H39.0002V26H13.0002V30.3334ZM13.0002 23.8334H39.0002V19.5H13.0002V23.8334ZM13.0002 17.3334H39.0002V13H13.0002V17.3334Z" fill="white"/>
<path d="M8.66651 39C6.28317 39 4.33318 37.05 4.33318 34.6666V8.66665C4.33318 6.28331 6.28317 4.33331 8.66651 4.33331H43.3332C45.7165 4.33331 47.6448 6.28331 47.6448 8.66665L47.6665 47.6666L38.9998 39H8.66651ZM43.3332 37.2016V8.66665H8.66651V34.6666H40.7982L43.3332 37.2016ZM38.9998 26H12.9998V30.3333H38.9998V26ZM38.9998 19.5H12.9998V23.8333H38.9998V19.5ZM38.9998 13H12.9998V17.3333H38.9998V13Z" fill="white"/>
</g>
<defs>
<clipPath id="clip0_111_4331">
<rect width="52" height="52" fill="white" transform="matrix(-1 0 0 1 52 0)"/>
</clipPath>
</defs>
</svg>
