<svg width="800" height="954" viewBox="0 0 800 954" fill="none" xmlns="http://www.w3.org/2000/svg">
<rect x="800" width="200" height="200" transform="rotate(90 800 0)" fill="white"/>
<rect x="800" width="100" height="200" transform="rotate(90 800 0)" fill="#4C0AA3"/>
<rect x="800" width="100" height="200" transform="rotate(90 800 0)" fill="#4C0AA3"/>
<rect x="800" y="200" width="200" height="200" transform="rotate(90 800 200)" fill="#FFD664"/>
<path d="M800 200C800 226.264 794.827 252.272 784.776 276.537C774.725 300.802 759.993 322.85 741.421 341.421C722.85 359.993 700.802 374.725 676.537 384.776C652.272 394.827 626.264 400 600 400L600 200L800 200Z" fill="white"/>
<rect x="400" y="200" width="200" height="200" fill="#4C0AA3"/>
<path fill-rule="evenodd" clip-rule="evenodd" d="M600 378.787L600 392.929L407.071 200L421.213 200L600 378.787ZM400 221.213L400 207.071L592.929 400L578.787 400L400 221.213ZM400 235.355L400 249.497L550.503 400L564.645 400L400 235.355ZM400 277.782L400 263.64L536.36 400L522.218 400L400 277.782ZM400 291.924L400 306.066L493.934 400L508.076 400L400 291.924ZM400 334.35L400 320.208L479.792 400L465.65 400L400 334.35ZM400 348.492L400 362.635L437.365 400L451.508 400L400 348.492ZM400 390.919L400 376.777L423.223 400L409.081 400L400 390.919ZM600 364.645L600 350.503L449.498 200L435.355 200L600 364.645ZM600 322.218L600 336.36L463.64 200L477.782 200L600 322.218ZM600 308.076L600 293.934L506.066 200L491.924 200L600 308.076ZM600 265.65L600 279.792L520.208 200L534.35 200L600 265.65ZM600 251.508L600 237.365L562.635 200L548.492 200L600 251.508ZM600 209.081L600 223.223L576.777 200L590.919 200L600 209.081Z" fill="#FF1684"/>
<rect x="400" width="200" height="200" fill="#FFD664"/>
<path d="M400 -2.40011e-05C426.264 -2.2853e-05 452.272 5.17312 476.537 15.2241C500.802 25.275 522.85 40.0069 541.421 58.5786C559.993 77.1503 574.725 99.1982 584.776 123.463C594.827 147.728 600 173.736 600 200L400 200L400 -2.40011e-05Z" fill="#4C0AA3"/>
<rect x="600" y="600" width="200" height="200" transform="rotate(-180 600 600)" fill="white"/>
<path d="M600 400L400 400L600 600L600 400Z" fill="#4C0AA3"/>
<rect x="800" y="600" width="200" height="200" transform="rotate(-180 800 600)" fill="white"/>
<path d="M800 400L600 400L800 600L800 400Z" fill="#4C0AA3"/>
<rect width="200" height="200" transform="matrix(-4.37114e-08 1 1 4.37114e-08 400 600)" fill="#FF1684"/>
<rect width="200" height="200" transform="matrix(-1 -4.37114e-08 -4.37114e-08 1 800 600)" fill="#FFD664"/>
<path d="M800 600C773.736 600 747.728 605.173 723.463 615.224C699.198 625.275 677.15 640.007 658.579 658.579C640.007 677.15 625.275 699.198 615.224 723.463C605.173 747.728 600 773.736 600 800L800 800L800 600Z" fill="white"/>
<rect x="400" y="800" width="200" height="200" fill="#FFD664"/>
<path d="M400 800C426.264 800 452.272 805.173 476.537 815.224C500.802 825.275 522.85 840.007 541.421 858.579C559.993 877.15 574.725 899.198 584.776 923.463C594.827 947.728 600 973.736 600 1000L400 1000L400 800Z" fill="#FF1684"/>
<rect x="600" y="800" width="200" height="200" fill="#FF1684"/>
<circle r="50" transform="matrix(4.37114e-08 -1 -1 -4.37114e-08 700 900.007)" fill="white"/>
<rect width="200" height="200" transform="matrix(-4.37114e-08 1 1 4.37114e-08 6.10352e-05 0)" fill="#FF1684"/>
<rect width="200" height="200" transform="matrix(-1 -4.37114e-08 -4.37114e-08 1 400 0)" fill="#FFD664"/>
<path d="M400 -6.51651e-06C373.736 -7.66456e-06 347.728 5.17313 323.463 15.2241C299.198 25.275 277.15 40.0069 258.579 58.5786C240.007 77.1503 225.275 99.1982 215.224 123.463C205.173 147.728 200 173.736 200 200L400 200L400 -6.51651e-06Z" fill="white"/>
<rect x="200" y="200" width="200" height="200" fill="#FF1684"/>
<circle r="50" transform="matrix(4.37114e-08 -1 -1 -4.37114e-08 300 300.007)" fill="white"/>
<rect x="6.10352e-05" y="200" width="200" height="200" fill="#FFD664"/>
<path d="M6.97774e-05 200C26.2644 200 52.2716 205.173 76.5368 215.224C100.802 225.275 122.85 240.007 141.421 258.579C159.993 277.15 174.725 299.198 184.776 323.463C194.827 347.728 200 373.736 200 400L6.10352e-05 400L6.97774e-05 200Z" fill="#FF1684"/>
<rect x="200" y="800" width="200" height="200" transform="rotate(-180 200 800)" fill="white"/>
<path d="M200 600L8.74228e-06 600L200 800L200 600Z" fill="#4C0AA3"/>
<rect x="400" y="800" width="200" height="200" transform="rotate(-180 400 800)" fill="white"/>
<path d="M400 600L200 600L400 800L400 600Z" fill="#4C0AA3"/>
<rect x="400" y="400" width="200" height="200" transform="rotate(90 400 400)" fill="#FFD664"/>
<path d="M400 400C400 426.264 394.827 452.272 384.776 476.537C374.725 500.802 359.993 522.85 341.421 541.421C322.85 559.993 300.802 574.725 276.537 584.776C252.272 594.827 226.264 600 200 600L200 400L400 400Z" fill="white"/>
<rect y="400" width="200" height="200" fill="#4C0AA3"/>
<path fill-rule="evenodd" clip-rule="evenodd" d="M200 578.787L200 592.929L7.07108 400L21.2132 400L200 578.787ZM-9.27258e-07 421.213L-3.09086e-07 407.071L192.929 600L178.787 600L-9.27258e-07 421.213ZM-1.54543e-06 435.355L-2.1636e-06 449.497L150.503 600L164.645 600L-1.54543e-06 435.355ZM-3.39995e-06 477.782L-2.78178e-06 463.64L136.36 600L122.218 600L-3.39995e-06 477.782ZM-4.01812e-06 491.924L-4.63629e-06 506.066L93.934 600L108.076 600L-4.01812e-06 491.924ZM-5.87264e-06 534.35L-5.25446e-06 520.208L79.7919 600L65.6497 600L-5.87264e-06 534.35ZM-6.49081e-06 548.492L-7.10898e-06 562.635L37.3655 600L51.5076 600L-6.49081e-06 548.492ZM-8.34533e-06 590.919L-7.72715e-06 576.777L23.2233 600L9.08117 600L-8.34533e-06 590.919ZM200 564.645L200 550.503L49.4975 400L35.3553 400L200 564.645ZM200 522.218L200 536.36L63.6396 400L77.7818 400L200 522.218ZM200 508.076L200 493.934L106.066 400L91.9239 400L200 508.076ZM200 465.65L200 479.792L120.208 400L134.35 400L200 465.65ZM200 451.508L200 437.365L162.635 400L148.492 400L200 451.508ZM200 409.081L200 423.223L176.777 400L190.919 400L200 409.081Z" fill="#FF1684"/>
<rect x="200" y="1000" width="200" height="200" transform="rotate(-180 200 1000)" fill="#4C0AA3"/>
<circle r="75" transform="matrix(-4.37114e-08 1 1 4.37114e-08 100 900)" fill="white"/>
<rect width="200" height="200" transform="matrix(1 4.37114e-08 4.37114e-08 -1 200 1000)" fill="white"/>
<rect width="100" height="200" transform="matrix(1 4.37114e-08 4.37114e-08 -1 200 1000)" fill="#4C0AA3"/>
<rect width="100" height="200" transform="matrix(1 4.37114e-08 4.37114e-08 -1 200 1000)" fill="#4C0AA3"/>
</svg>
